#!OML:ASF C:\Vicon Data\Big\jianyuan-13\jianyuan\Session 1\Capture.male.ASF
:FULLY-SPECIFIED
:DEGREES
98
root -8.422159 17.764588 -16.853973 4.704439 6.712574 2.553633
lowerback -7.958281 1.319981 -2.362875 
upperback 2.265670 2.040284 -0.594990 
thorax 6.784737 0.910109 0.981887 
lowerneck -6.004755 -2.465562 2.145953 
upperneck 8.563767 -3.465770 -1.643732 
head 3.785849 -1.758357 -1.102706 
rclavicle 0.000000 0.000000 
rhumerus -36.664262 -16.223932 -80.342326 
rradius 39.297929 
rwrist 23.682871 
rhand -19.228925 -20.004165 
rfingers 0.000000 
rthumb 7.084146 -49.865611 
lclavicle 0.000000 0.000000 
lhumerus -38.604763 37.614424 67.446711 
lradius 25.111044 
lwrist -60.986111 
lhand -20.002000 0.832537 
lfingers 0.000000 
lthumb 6.337902 30.717721 
rfemur -9.103797 4.110631 24.066858 
rtibia 24.281998 
rfoot -20.764898 -4.046774 
rtoes -24.618537 
lfemur -57.553349 6.899588 -22.153642 
ltibia 64.215111 
lfoot -19.773432 -3.495662 
ltoes -40.752621 
99
root -8.407646 17.748686 -16.785515 4.774438 6.603610 2.295396
lowerback -8.180292 1.314902 -2.042127 
upperback 2.179104 2.004845 -0.561596 
thorax 6.830476 0.906501 0.837364 
lowerneck -5.926863 -2.397453 2.291381 
upperneck 8.703054 -3.379209 -1.806411 
head 3.816987 -1.720413 -1.179337 
rclavicle 0.000000 0.000000 
rhumerus -36.873626 -16.119773 -80.374466 
rradius 39.356029 
rwrist 23.451263 
rhand -19.273928 -19.950315 
rfingers 0.000000 
rthumb 7.040736 -49.813227 
lclavicle 0.000000 0.000000 
lhumerus -38.801350 37.503704 67.373535 
lradius 25.140907 
lwrist -60.787322 
lhand -19.988395 0.947734 
lfingers 0.000000 
lthumb 6.351011 30.832495 
rfemur -8.954586 4.070636 24.342221 
rtibia 24.287888 
rfoot -20.990991 -3.914101 
rtoes -24.596821 
lfemur -56.044163 6.729305 -21.925359 
ltibia 60.440975 
lfoot -19.676520 -2.871096 
ltoes -41.353970 
100
root -8.396767 17.737309 -16.712912 4.939368 6.556978 2.097813
lowerback -8.526753 1.243874 -1.843710 
upperback 2.092760 1.894446 -0.505711 
thorax 6.944725 0.859350 0.777527 
lowerneck -5.912684 -2.318732 2.167639 
upperneck 8.870084 -3.271598 -1.774048 
head 3.878217 -1.672092 -1.144509 
rclavicle 0.000000 0.000000 
rhumerus -36.980823 -16.186765 -80.299333 
rradius 39.327633 
rwrist 23.775890 
rhand -19.269437 -19.948492 
rfingers 0.000000 
rthumb 7.045071 -49.811173 
lclavicle 0.000000 0.000000 
lhumerus -39.062816 37.571377 67.179913 
lradius 25.135645 
lwrist -60.972748 
lhand -20.153263 0.925464 
lfingers 0.000000 
lthumb 6.191841 30.814972 
rfemur -8.844599 4.044672 24.552185 
rtibia 24.221893 
rfoot -21.186690 -3.819385 
rtoes -24.564117 
lfemur -54.547958 6.273377 -21.594485 
ltibia 56.569639 
lfoot -19.828889 -2.374848 
ltoes -41.695361 
101
root -8.377116 17.727994 -16.641239 5.020427 6.424557 1.879107
lowerback -8.815454 1.265099 -1.510402 
upperback 2.009930 1.891963 -0.508091 
thorax 7.032773 0.872067 0.594117 
lowerneck -5.786002 -2.318067 2.218239 
upperneck 8.990189 -3.271273 -1.883502 
head 3.893413 -1.678049 -1.189619 
rclavicle 0.000000 0.000000 
rhumerus -37.170802 -16.140337 -80.318347 
rradius 39.336619 
rwrist 23.632703 
rhand -19.264481 -19.908326 
rfingers 0.000000 
rthumb 7.049873 -49.770941 
lclavicle 0.000000 0.000000 
lhumerus -39.218033 36.774846 67.512492 
lradius 25.634993 
lwrist -60.171503 
lhand -19.860649 0.963019 
lfingers 0.000000 
lthumb 6.474382 30.844073 
rfemur -8.640768 3.939266 24.740004 
rtibia 24.140123 
rfoot -21.371060 -3.549666 
rtoes -24.594344 
lfemur -52.929480 5.894506 -21.242831 
ltibia 52.630068 
lfoot -20.006199 -1.837866 
ltoes -41.383085 
